<svg id="b3e2c0f5-76b4-47ed-8088-6239c4f27bb6" data-name="Layer 1" xmlns="http://www.w3.org/2000/svg" viewBox="0 0 144 255"><title>Logo (Gray Narrow)</title><path d="M42.375,242.9717Q16.8245,215.1089,8.9966,182.6006q-7.8362-32.5165,5.5146-59.21l7.5464-16.2544L12.19,92.624Q2.312,78.1207,2.3213,69.4043q0-19.7279,48.1807-52.8247Q71.4,2.6474,76.334.9062q4.9248-1.7416,12.48,2.9024,10.45,6.966,23.8007,34.249,26.6925,55.1558,1.16,103.9082-11.6192,22.6392-14.5117,22.64-2.9121,0-22.0586,22.0586L58.6289,208.7227l11.61,10.4492Q81.844,229.0361,89.1055,229.33q7.251.2856,26.9922-18.2852,19.7284-18.5844,24.3808-16.2539,5.2251,3.4835-2.9023,11.61-5.81,5.7948-26.1221,23.22-17.4154,15.0879-25.542,19.7363A35.6837,35.6837,0,0,1,67.917,254.001,33.8466,33.8466,0,0,1,42.375,242.9717ZM69.0776,76.9507q15.6745-16.2444,4.6441-37.732-5.81-11.6052-12.48-12.19-6.68-.5712-18.2856,10.4488Q31.9216,47.3545,31.6362,51.99q-.3,4.6531,9.5782,17.9952,8.7069,11.0339,14.8022,12.48Q62.1119,83.9214,69.0776,76.9507ZM65.5947,179.6982Q81.84,162.2827,87.0732,150.0928q5.2251-12.1905,6.3858-35.99,1.74-30.7617-2.3223-33.0883-4.0679-2.313-14.5117,8.1269a85.724,85.724,0,0,1-23.8008,16.8345q-21.4833,10.4487-15.6733,45.2783a160.2677,160.2677,0,0,0,6.6753,29.0244Q48.18,193.04,50.502,193.05,53.4,193.05,65.5947,179.6982Z" style="fill:#495057"/></svg>